PathFileType	4	(X/Y/Z)	D:\TRACE\spotREDO_2-26-24\spot_justBody_Motion_2_3-platform.trc
DataRate	CameraRate	NumFrames	NumMarkers	Units	OrigDataRate	OrigDataStartFrame	OrigNumFrames
100.00	100.00	      72	5	mm	100.00	876	      7000
Frame#	Time	Left_Front			Right_Front			Left_Aft			Right_Aft			Post			
		X1	Y1	Z1	X2	Y2	Z2	X3	Y3	Z3	X4	Y4	Z4	X5	Y5	Z5	

876	8.750	-746.70135	-47.98294	-585.23413	668.14111	-33.54464	-500.99356	-818.32635	49.58113	629.94067	751.92010	56.00262	632.98669	-37.15471	547.92865	-1036.29138	
877	8.760	-746.49121	-48.68255	-585.40186	668.45239	-34.11137	-501.15936	-818.00391	50.05690	629.69238	752.24561	57.38112	633.03833	-36.72731	546.32098	-1037.35938	
878	8.770	-746.18024	-49.47539	-585.54474	668.84882	-34.86507	-501.26395	-817.53894	50.84869	629.52661	752.45349	57.72103	632.36353	-35.85199	545.05383	-1037.61084	
879	8.780	-745.75702	-50.24701	-585.62848	668.90814	-35.50209	-501.52136	-817.48224	51.55193	629.16046	752.57037	58.52612	632.35828	-35.25320	543.68726	-1038.27466	
880	8.790	-745.42072	-50.83654	-585.71265	669.32013	-36.04874	-501.85440	-817.08447	52.45771	628.78204	753.30298	59.51129	632.28784	-34.24979	542.65399	-1038.68604	
881	8.800	-745.06372	-51.51509	-585.77490	669.80273	-36.68370	-501.78604	-816.59601	52.92445	628.64014	753.29688	60.20633	632.01575	-33.78259	541.52869	-1039.51440	
882	8.810	-744.49988	-52.35550	-585.87799	670.36700	-37.22399	-501.76672	-816.08350	53.44201	628.36456	753.85327	60.70313	631.73059	-34.12550	540.22601	-1040.76514	
883	8.820	-744.15369	-53.01171	-585.95825	670.69305	-37.82430	-501.80215	-815.96661	54.03780	628.09924	754.50702	61.09762	631.33405	-34.71165	539.00775	-1042.12134	
884	8.830	-744.00085	-53.37656	-586.16443	670.91095	-38.30647	-502.04678	-815.54327	54.92123	627.89740	754.81592	61.67865	631.21265	-33.89257	537.76184	-1043.17371	
885	8.840	-743.51294	-54.09828	-586.53949	671.20361	-38.62801	-502.16754	-815.14636	55.26218	627.75391	755.00183	62.59307	631.15735	-33.63612	536.93060	-1043.64929	
886	8.850	-743.06000	-54.69381	-586.45129	671.91449	-39.33739	-502.30902	-814.55469	55.88987	627.58051	755.27283	63.10812	630.84680	-33.14348	535.89825	-1044.29639	
887	8.860	-742.65411	-54.99655	-586.37189	672.34998	-39.54665	-502.38547	-814.03253	56.31684	627.40314	755.94049	63.60772	630.66217	-32.61570	534.93665	-1045.07031	
888	8.870	-742.03644	-55.55840	-586.57764	672.67712	-39.84219	-502.64136	-813.70911	57.16354	627.15942	756.64679	63.93456	630.45117	-32.18400	534.22717	-1045.45374	
889	8.880	-741.64282	-55.91494	-586.56891	673.33649	-40.59694	-502.46222	-813.11609	57.60355	627.10577	756.85913	64.18803	630.16479	-31.57540	533.70142	-1045.76855	
890	8.890	-740.90802	-56.65656	-586.69348	673.84277	-40.99844	-502.49509	-812.66309	57.89483	626.86639	757.08118	64.75790	630.47894	-31.07798	532.84546	-1046.24207	
891	8.900	-740.56989	-56.85602	-586.67657	674.39899	-41.31604	-502.62619	-812.02167	58.07309	626.81598	757.67902	65.11340	630.18561	-30.50988	532.08850	-1046.62415	
892	8.910	-740.05981	-57.01316	-586.73712	674.85858	-41.54185	-502.68378	-811.56604	58.38218	626.76599	758.45776	65.50362	630.18512	-29.85397	531.55743	-1046.67749	
893	8.920	-739.58722	-57.32652	-586.81494	675.30127	-41.59063	-502.74033	-811.06061	58.32768	626.67944	759.06421	66.16306	630.15460	-29.63410	531.23712	-1046.76428	
894	8.930	-738.82007	-57.47371	-586.93048	675.83655	-41.92620	-502.91827	-810.68542	58.68847	626.55231	759.64587	66.18846	630.01050	-28.54730	530.40271	-1047.23987	
895	8.940	-738.12427	-57.96885	-587.12445	676.65991	-42.19377	-502.95953	-809.73938	59.28394	626.53290	760.09692	66.31775	629.83643	-28.50226	530.00494	-1047.92419	
896	8.950	-737.37988	-58.23431	-586.98737	677.43970	-42.45459	-502.91248	-809.22192	59.40471	626.40796	760.97754	66.70869	629.77338	-27.93250	529.58557	-1048.13257	
897	8.960	-736.85870	-58.60850	-586.96967	678.09534	-42.56010	-502.96463	-808.49432	59.60218	626.19623	761.82074	67.11759	629.71057	-27.22628	529.26831	-1048.44202	
898	8.970	-736.39063	-58.72848	-587.00574	678.42798	-42.50172	-503.00217	-807.86298	59.67894	626.13898	762.42590	67.29621	629.63733	-26.54120	528.95947	-1048.77393	
899	8.980	-735.60962	-58.87280	-587.16315	678.99469	-42.58601	-503.15128	-807.34430	59.85804	626.10175	762.91345	67.36378	629.63037	-25.70605	528.51178	-1049.16101	
900	8.990	-734.99347	-58.91586	-587.16998	679.98438	-42.76453	-503.14490	-806.69147	60.24854	626.01117	763.44830	67.48222	629.57349	-25.01010	528.37097	-1049.25159	
901	9.000	-734.37720	-58.98120	-587.19562	680.78143	-43.07904	-502.96365	-805.84320	60.24102	625.97913	764.33850	67.41260	629.36072	-24.20260	528.08484	-1049.36328	
902	9.010	-733.65234	-58.96051	-587.13708	681.27179	-43.17891	-503.03162	-805.15460	60.29332	625.93524	765.05646	67.61689	629.31622	-23.40419	527.92535	-1049.63879	
903	9.020	-732.77972	-59.05503	-587.09521	681.96863	-43.02414	-503.10812	-804.38690	60.33557	625.92297	765.59418	67.81223	629.40753	-22.58420	528.05334	-1049.48999	
904	9.030	-732.08368	-59.24191	-587.23486	682.74445	-43.03068	-503.11795	-804.09436	60.20855	625.99908	766.58740	67.55396	629.48688	-21.89865	528.06781	-1049.42419	
905	9.040	-731.08362	-59.17665	-587.13788	683.62177	-42.91011	-503.04181	-803.01178	60.38848	625.94360	767.39410	67.50806	629.52393	-21.66195	528.19354	-1049.54993	
906	9.050	-730.35217	-59.06765	-587.20502	684.58179	-42.85067	-503.13474	-802.10962	60.07932	626.10352	767.93738	67.45029	629.69489	-20.57440	528.41730	-1049.18970	
907	9.060	-729.70178	-58.76856	-587.17444	684.96796	-42.62699	-503.22339	-801.46875	59.85459	626.15405	768.86188	67.54099	629.67535	-19.51147	528.60114	-1048.79675	
908	9.070	-728.71460	-58.68580	-587.00031	685.90247	-42.56433	-503.06631	-800.49921	59.64569	626.30566	769.88660	67.20647	629.64209	-18.65008	528.83801	-1048.26331	
909	9.080	-728.02307	-58.48270	-587.05139	686.81439	-42.64886	-502.97397	-799.63867	59.50089	626.30017	770.57996	67.18637	629.62378	-18.48610	529.36206	-1048.36938	
910	9.090	-727.14056	-58.00665	-586.96790	687.71216	-42.32633	-502.93463	-799.11426	59.37850	626.28168	771.39423	66.88657	629.71497	-17.41210	529.91449	-1048.01550	
911	9.100	-726.51373	-57.86563	-586.91656	688.42682	-41.87823	-502.83713	-797.95190	58.97714	626.42670	772.10730	66.49200	629.86639	-16.40596	530.32196	-1047.69397	
912	9.110	-725.49615	-57.41879	-586.77234	689.63495	-41.69884	-502.72311	-797.16864	58.80648	626.46808	773.17371	66.06435	629.90430	-14.97828	530.93994	-1047.15796	
913	9.120	-724.39227	-57.01995	-586.81567	690.14960	-41.43066	-502.71378	-796.28516	58.48139	626.46625	774.20013	65.99762	630.05176	-14.77144	531.51837	-1047.42065	
914	9.130	-723.75269	-56.76580	-586.74292	691.09589	-41.01827	-502.62030	-795.38617	57.87741	626.60199	774.98907	65.39788	630.00641	-13.76336	532.34479	-1046.99243	
915	9.140	-722.78271	-56.07787	-586.59528	692.19269	-40.43786	-502.54733	-794.51239	57.56695	626.82800	775.92310	65.16273	630.34485	-12.78324	532.97241	-1046.36707	
916	9.150	-722.18628	-55.69375	-586.62274	693.02820	-40.32146	-502.28793	-793.59064	57.10647	627.05988	776.70459	64.57338	630.62744	-12.00909	533.64984	-1045.89819	
917	9.160	-720.95990	-55.37449	-586.55481	693.95544	-39.72402	-502.38577	-792.63489	56.60412	627.25830	777.58191	64.16412	630.52972	-11.02558	534.52399	-1045.56226	
918	9.170	-720.03125	-54.76874	-586.53082	694.87274	-39.29434	-502.27301	-791.80402	56.03431	627.44415	778.54541	63.51485	630.89514	-10.02237	535.48541	-1044.58545	
919	9.180	-719.21283	-54.42251	-586.42377	695.79492	-38.73435	-502.45471	-790.84045	55.62976	627.65918	779.57794	63.10232	630.86774	-8.74796	536.24036	-1043.77295	
920	9.190	-717.84277	-53.80351	-586.19989	696.82166	-38.34141	-502.09573	-789.77588	55.07753	627.82660	780.69348	62.56153	631.14142	-8.24305	537.53021	-1043.43079	
921	9.200	-716.92865	-53.26564	-586.05170	697.63110	-37.80756	-501.93677	-788.74030	54.70576	628.14862	781.48700	62.02830	631.44025	-6.40342	538.34125	-1042.13000	
922	9.210	-716.03198	-52.52077	-585.91766	698.97858	-37.35813	-501.86053	-787.59082	53.81469	628.44482	782.49921	61.47466	631.52509	-6.29846	539.63849	-1041.75000	
923	9.220	-715.05481	-51.87914	-585.87207	699.59723	-36.63579	-501.79697	-786.68921	53.28404	628.42572	783.68683	60.84417	631.85962	-5.15070	540.62427	-1041.01257	
924	9.230	-713.92920	-51.14669	-585.76776	700.85986	-36.07285	-501.64072	-785.71332	52.77242	628.67603	784.84290	60.25058	632.19910	-3.99007	542.06030	-1040.07373	
925	9.240	-712.90320	-50.49534	-585.81769	701.89069	-35.60579	-501.41318	-784.84326	52.03352	628.94122	785.91125	59.49137	632.48834	-3.31721	543.09668	-1039.72546	
926	9.250	-712.08765	-49.82540	-585.57697	702.94989	-34.70858	-501.32779	-783.86243	51.52053	628.99127	786.75592	58.84448	632.46088	-2.19127	544.49969	-1038.69458	
927	9.260	-710.99719	-49.14986	-585.41486	703.85059	-34.27517	-501.22931	-782.79858	50.96903	629.03192	787.77051	58.11241	632.71692	-1.11303	545.69305	-1037.76172	
928	9.270	-709.71838	-48.01233	-585.17230	705.01996	-33.50129	-500.98550	-781.58557	49.99701	629.69543	788.88208	57.15749	633.26508	-0.07725	547.21149	-1037.11157	
929	9.280	-708.78754	-47.31400	-585.14886	705.97729	-32.59113	-500.84836	-780.44305	49.24393	629.91412	789.84479	56.58387	633.45850	1.06451	548.76721	-1035.92188	
930	9.290	-707.64600	-46.59007	-585.01221	706.87726	-31.92347	-500.76706	-779.62067	48.09956	630.28381	790.98132	55.47850	633.68842	1.94679	550.23108	-1035.18616	
931	9.300	-706.58728	-45.67902	-584.73065	708.28003	-31.06923	-500.49228	-778.27148	46.67588	630.53058	791.79669	54.32098	633.93390	3.01131	551.56586	-1034.14099	
932	9.310	-705.50189	-44.68214	-584.58923	709.20148	-30.59564	-500.34384	-777.44031	46.38775	630.81226	793.03363	53.50303	634.31293	3.98064	553.45325	-1033.01794	
933	9.320	-704.38763	-43.81569	-584.39886	710.31512	-29.48941	-500.23193	-776.00134	45.15246	631.31348	794.30713	52.83775	634.40466	5.24877	554.96307	-1031.46033	
934	9.330	-703.26660	-42.86599	-584.43341	711.38995	-28.83690	-500.11871	-774.99536	44.58638	631.53290	795.56189	52.12476	634.99579	6.40246	556.42822	-1030.34485	
935	9.340	-702.19061	-41.91060	-584.13000	712.54492	-27.67940	-499.87692	-773.87036	43.61335	631.81366	796.49072	50.91625	635.33142	7.34113	558.34875	-1029.06274	
936	9.350	-701.12549	-40.75179	-583.94299	713.60962	-27.07838	-499.64127	-772.75775	42.37031	632.22791	797.78070	49.72688	635.33984	8.47383	560.09021	-1028.17932	
937	9.360	-700.11243	-39.82497	-583.65527	714.80762	-25.83182	-499.49948	-771.69635	41.50407	632.50525	798.83240	48.62648	635.72968	9.52165	561.99402	-1026.77222	
938	9.370	-698.88104	-38.92565	-583.36017	715.60876	-25.34231	-499.20062	-770.63611	40.20365	632.76685	799.71625	47.80782	636.09729	10.42110	563.75983	-1025.53247	
939	9.380	-697.92542	-37.74433	-583.27649	717.21204	-24.30951	-498.87970	-769.38251	39.26996	633.18561	800.86060	46.73468	636.57813	11.70464	565.61414	-1024.46606	
940	9.390	-696.63989	-36.46336	-583.02539	718.01343	-23.29679	-498.77991	-768.57306	38.22945	633.42957	802.23376	45.57262	636.97174	12.94484	567.53766	-1023.30042	
941	9.400	-695.36981	-35.45532	-582.80969	719.23108	-22.01080	-498.45825	-767.08978	36.96545	633.96161	803.32440	44.58678	637.32715	14.14456	569.42938	-1022.13312	
942	9.410	-694.37769	-34.10552	-582.48621	720.25757	-21.35547	-498.12122	-766.02319	35.96289	634.30200	804.18280	43.28331	637.87122	15.53316	572.01019	-1020.62347	
943	9.420	-693.22583	-33.09355	-582.22998	721.50043	-20.12749	-498.10965	-764.92902	34.71460	634.72156	805.80316	42.17610	638.02338	16.40212	573.93353	-1019.33606	
944	9.430	-692.01910	-32.07873	-582.08679	722.13470	-19.14251	-497.96371	-763.84253	33.38649	635.11957	806.49109	40.94730	638.47937	18.17581	575.87134	-1017.38794	
945	9.440	-691.11932	-30.62321	-581.80554	723.74506	-18.13754	-497.54645	-762.53156	32.16183	635.49579	807.44440	39.82999	638.88220	18.67827	577.86328	-1016.23767	
946	9.450	-689.96692	-29.62590	-581.69727	724.70978	-16.92828	-497.12759	-761.63275	31.12180	635.93243	808.57172	37.96913	638.96515	19.60180	579.89758	-1014.59393	
947	9.460	-688.82361	-28.42540	-581.54626	725.94812	-15.94806	-496.95895	-760.23956	29.82679	636.24255	809.62769	36.90415	639.19141	21.13570	582.06006	-1012.68671	
